<svg version="1.1" viewBox="0.0 0.0 960.0 720.0" fill="none" stroke="none" stroke-linecap="square" stroke-miterlimit="10" xmlns:xlink="http://www.w3.org/1999/xlink" xmlns="http://www.w3.org/2000/svg"><clipPath id="p.0"><path d="m0 0l960.0 0l0 720.0l-960.0 0l0 -720.0z" clip-rule="nonzero"/></clipPath><g clip-path="url(#p.0)"><path fill="#000000" fill-opacity="0.0" d="m0 0l960.0 0l0 720.0l-960.0 0z" fill-rule="evenodd"/><path fill="#000000" fill-opacity="0.0" d="m304.79004 140.22835l265.4803 0l0 229.38582l-265.4803 0z" fill-rule="evenodd"/><path fill="#5abfbf" d="m364.28397 289.48126l16.421875 -77.765625l7.671875 0l16.515625 77.765625l-7.203125 0l-3.84375 -20.828125l-18.53125 0l-3.921875 20.828125l-7.109375 0zm12.09375 -26.109375l16.515625 0l-8.265625 -41.953125l-8.25 41.953125zm37.245117 26.109375l1.921875 -77.765625l7.296875 0l15.359375 67.5l15.65625 -67.5l7.28125 0l1.921875 77.765625l-6.046875 0l-1.53125 -61.921875l-14.875 61.921875l-4.703125 0l-14.6875 -61.828125l-1.546875 61.828125l-6.046875 0zm78.91547 0.953125q-6.34375 0 -10.515625 -2.625q-4.171875 -2.640625 -6.28125 -7.390625q-2.109375 -4.765625 -2.59375 -11.09375l6.4375 -1.921875q0.46875 4.796875 1.71875 8.6875q1.25 3.890625 3.9375 6.15625q2.6875 2.25 7.390625 2.25q5.1875 0 8.0625 -2.6875q2.890625 -2.703125 2.890625 -8.546875q0 -5.1875 -2.546875 -8.921875q-2.546875 -3.75 -6.96875 -7.890625l-13.71875 -13.140625q-3.65625 -3.5625 -5.390625 -7.34375q-1.71875 -3.796875 -1.71875 -8.3125q0 -8.0625 4.796875 -12.375q4.796875 -4.328125 12.765625 -4.328125q4.140625 0 7.453125 1.0625q3.3125 1.046875 5.65625 3.40625q2.359375 2.34375 3.703125 6.09375q1.34375 3.75 1.8125 9.125l-6.234375 1.625q-0.390625 -4.890625 -1.59375 -8.390625q-1.1875 -3.515625 -3.734375 -5.328125q-2.546875 -1.828125 -7.0625 -1.828125q-4.796875 0 -7.875 2.5q-3.0625 2.484375 -3.0625 7.765625q0 3.171875 1.203125 5.765625q1.203125 2.59375 4.265625 5.5625l13.734375 12.96875q4.609375 4.3125 7.96875 9.59375q3.359375 5.28125 3.359375 11.90625q0 5.859375 -2.265625 9.796875q-2.25 3.9375 -6.28125 5.90625q-4.03125 1.953125 -9.3125 1.953125z" fill-rule="nonzero"/><path fill="#000000" fill-opacity="0.0" d="m304.79004 254.92126l0 0c0 -68.909485 59.42978 -124.77165 132.74014 -124.77165l0 0c35.204895 0 68.967865 13.145538 93.86148 36.54477c24.893616 23.399216 38.878662 55.135376 38.878662 88.22688l0 0c0 68.909485 -59.42978 124.77164 -132.74014 124.77164l0 0c-73.31036 0 -132.74014 -55.862152 -132.74014 -124.77164z" fill-rule="evenodd"/><path stroke="#5abfbf" stroke-width="4.0" stroke-linejoin="round" stroke-linecap="butt" d="m304.79004 254.92126l0 0c0 -68.909485 59.42978 -124.77165 132.74014 -124.77165l0 0c35.204895 0 68.967865 13.145538 93.86148 36.54477c24.893616 23.399216 38.878662 55.135376 38.878662 88.22688l0 0c0 68.909485 -59.42978 124.77164 -132.74014 124.77164l0 0c-73.31036 0 -132.74014 -55.862152 -132.74014 -124.77164z" fill-rule="evenodd"/></g></svg>